<?xml version="1.0" encoding="UTF-8" standalone="no"?>
<svg
   id="Layer_1"
   data-name="Layer 1"
   viewBox="0 0 199.99999 200"
   version="1.1"
   sodipodi:docname="button-program.svg"
   width="200"
   height="200"
   inkscape:version="1.4.3 (0d15f75, 2025-12-25)"
   xmlns:inkscape="http://www.inkscape.org/namespaces/inkscape"
   xmlns:sodipodi="http://sodipodi.sourceforge.net/DTD/sodipodi-0.dtd"
   xmlns="http://www.w3.org/2000/svg"
   xmlns:svg="http://www.w3.org/2000/svg">
  <sodipodi:namedview
     id="namedview3"
     pagecolor="#ffffff"
     bordercolor="#000000"
     borderopacity="0.25"
     inkscape:showpageshadow="2"
     inkscape:pageopacity="0.0"
     inkscape:pagecheckerboard="0"
     inkscape:deskcolor="#d1d1d1"
     inkscape:zoom="2.2917836"
     inkscape:cx="-51.051941"
     inkscape:cy="174.97289"
     inkscape:window-width="1916"
     inkscape:window-height="997"
     inkscape:window-x="4311"
     inkscape:window-y="0"
     inkscape:window-maximized="0"
     inkscape:current-layer="Layer_1" />
  <defs
     id="defs1">
    <style
       id="style1">
      .cls-1 {
        fill: #799f3d;
      }
    </style>
  </defs>
  <g
     id="g4"
     transform="matrix(1.034968,0,0,1.034968,10.637456,1.6778356e-6)">
    <g
       id="UCSIZE"
       transform="translate(-109.40111,-50.368385)">
      <g
         id="g3">
        <path
           class="cls-1"
           d="m 236.46,68.65 c 1.42,0.27 2.87,0.33 4.3,0.56 3.03,0.5 9.22,2.02 11.5,3.98 2.78,2.39 3.24,7.59 3.62,11.04 1.85,16.85 2.71,33.47 3.12,50.41 0.31,12.43 0.69,24.8 1.49,37.22 0.2,3.18 0.68,6.35 0.85,9.53 l 0.38,0.27 6.94,-5.58 c 0.94,-0.49 3.17,-0.25 4.18,0.06 0.65,0.19 1.63,0.95 2.26,1.05 0.39,0.06 0.77,-0.16 1.02,-0.06 0.97,0.38 5.22,3.95 5.67,4.88 0.82,1.69 -0.19,3.07 -1.38,4.19 -1.58,1.49 -3.16,1.8 -4.79,3.45 -3.46,3.51 -7.12,7.61 -10.46,11.29 -1.01,1.11 -4.06,4.3 -4.42,5.46 -0.98,3.21 -1.15,6.8 -2.34,10.18 -3.31,9.44 -11.11,12.28 -20.4,13.37 -2.46,2.65 -4.62,5.59 -7.1,8.22 -1.69,1.79 -5.03,5.35 -7.57,5.44 -1.29,0.04 -3.89,-1.05 -5.14,-1.63 -3.29,-1.51 -6.55,-7.7 -9.28,-10.32 -0.18,-0.17 -0.34,-0.33 -0.6,-0.37 -2.63,0.15 -5.26,0.27 -7.89,0.45 -1.39,0.09 -2.89,0.43 -4.28,0.5 -6.33,0.32 -13.08,-0.45 -19.44,-0.67 -9.64,-0.34 -19.02,0.2 -28.64,-1.01 -9.77,-1.23 -27.62,-3.09 -32.25,-13.21 -2.7,-5.9 -3.39,-19.7 -3.92,-26.55 -2.29,-29.7 -3.13,-59 -1.97,-88.77 0.35,-9.01 0.28,-25.52 9,-30.86 0.37,-0.23 0.85,-0.29 1.26,-0.55 2.19,-1.38 4,-2.77 6.62,-3.42 0.11,-4.8 0.18,-9.5 3.54,-13.26 4.03,-4.52 11.41,-2.52 16.29,-0.66 2.67,1.02 4.97,2.26 6.24,4.96 0.71,1.51 1.31,4.98 0.59,6.47 -0.2,0.41 -0.71,0.49 -0.9,0.83 l 12.54,0.07 c 1.62,-5.28 6.08,-12.15 12.25,-12.27 1.97,-0.04 6.39,1.31 8.22,2.17 3.92,1.85 5.98,6.52 6.03,10.68 l 14.01,0.42 c 0.49,-2.35 0.9,-4.52 2.04,-6.69 2.41,-4.57 7.01,-9.41 12.53,-9.55 2.78,-0.07 9.55,2.15 11.76,3.89 4.61,3.62 5.06,8.88 4.48,14.38 z m -6.28,-0.64 c 0.6,-4.52 0.06,-9.34 -3.62,-12.44 -1.69,-1.42 -2.84,-1.42 -4.98,-1.02 -5.87,1.09 -9.18,6.88 -9.52,12.47 z M 145.46,56.87 c -0.83,-0.89 -2.25,-1.61 -3.48,-1.71 -1.73,-0.15 -5.33,0.07 -6.67,1.25 -1.94,1.72 -2.11,7.33 -2.15,9.79 l 7.65,-0.67 h 8.65 c 0,0 -1.43,-0.62 -1.43,-0.62 -1.12,-0.52 -0.45,-2.08 -0.54,-3.25 -0.11,-1.52 -0.99,-3.69 -2.04,-4.8 z m 26.08,8.83 13.58,0.31 c 0.18,-0.08 0.25,-0.2 0.27,-0.39 0.05,-0.55 -0.43,-2.39 -0.62,-3.01 -0.41,-1.33 -2.34,-5.07 -3.76,-5.3 -1.54,-0.25 -3.54,0.45 -4.84,1.24 -2.35,1.42 -3.97,4.57 -4.63,7.15 z m -7.41,3.96 c -1.45,-0.04 -2.92,0.05 -4.37,0 -7.01,-0.21 -14.24,-0.51 -21.24,0.16 -1.73,0.17 -3.45,0.51 -5.18,0.67 0.14,5.47 1.32,10.9 3.37,15.96 0.76,1.88 1.81,4.28 2.97,5.92 0.2,0.29 0.81,0.7 0.87,0.95 0.28,1.2 -1.41,1.39 -1.46,2.52 h -0.24 c -0.5,-0.8 -1.21,-0.6 -1.94,-0.87 -2.13,-0.77 -2.8,-0.89 -4,-2.91 -2.5,-4.19 -4.54,-10.47 -5.3,-15.29 -0.11,-0.67 -0.34,-4.14 -0.45,-4.32 -0.21,-0.34 -1.37,0.44 -1.68,0.63 -0.89,0.54 -2.04,1.77 -2.79,2.15 -0.56,0.29 -0.81,0.05 -1.39,0.59 -3.24,3.02 -4.44,13.44 -4.77,17.8 -0.26,3.4 -0.68,8.23 -0.5,11.54 0.62,11.57 17.11,11.8 25.46,12.09 6.5,0.23 13.08,0.21 19.59,0.34 24.13,0.48 49.44,1.86 73.47,-0.34 6.64,-0.61 11.64,-1.21 16.15,-6.59 0.94,-1.12 1.13,-1.36 1.07,-2.88 -0.12,-3 -0.71,-6.22 -0.99,-9.23 -0.52,-5.78 -0.61,-17.18 -2.77,-22.1 -1.5,-3.41 -3.54,-3.2 -6.89,-3.66 -2.05,-0.28 -4.86,-0.78 -6.73,-0.18 -0.21,-0.63 -1.3,-0.59 -1.98,-0.66 -1.39,-0.15 -2.9,-0.07 -4.28,-0.17 -5.35,-0.38 -10.7,-0.93 -16.06,-0.99 1.18,7.87 4.87,15.53 9.73,21.78 0.26,0.33 1.19,1.11 1.27,1.4 0.42,1.38 -1.03,1.33 -1.3,2.5 l -0.22,0.03 c -0.36,0 -0.52,-0.48 -0.74,-0.57 -0.15,-0.06 -0.41,0.08 -0.66,0 -2.7,-0.93 -3.22,-1.16 -5.02,-3.4 -4.88,-6.11 -8.18,-14.3 -9.48,-21.98 l -35.26,-0.89 c -0.3,3.21 -0.33,6.53 0.45,9.68 0.98,3.97 4.34,10.46 7.13,13.46 0.37,0.4 1.68,1.35 1.78,1.68 0.42,1.41 -0.93,1.2 -1.14,2.33 -0.08,0.06 -1.46,-0.25 -1.67,-0.32 -0.74,-0.26 -1.92,-0.75 -2.71,-1.11 -5.1,-2.33 -10.9,-16.23 -10.43,-21.86 l 0.33,-3.87 z m 5.6,81.45 v 2.55 l 16.4,-0.15 c 0.16,-6.24 0.13,-12.48 -0.27,-18.7 l 0.47,-0.11 c 0.02,-0.53 0.19,-0.81 0.61,-1.13 0.12,0.47 0.41,0.28 0.74,0.41 0.73,0.3 1.45,0.77 2.31,0.65 0.42,0.25 0.77,3.91 0.82,4.62 0.22,2.77 0.14,5.61 0.16,8.41 l 0.34,1.81 4.57,-8.38 c -1.58,-2.66 -3.53,-5.29 -6.06,-7.11 l 0.99,-0.25 -0.49,-0.41 c 0.42,-0.89 1.02,-0.59 1.85,-0.37 1.63,0.45 3.76,1.3 5.13,2.29 0.33,0.24 1,1.05 1.21,1.11 0.63,0.17 0.79,-1.29 1.62,-1.3 0.21,0 1.34,0.65 1.7,0.77 0.66,0.21 1.49,0.4 2.17,0.38 0.36,1.2 -2.03,3.95 -1.79,4.82 l 5.85,9.28 c 0.14,1.32 -1.06,1.22 -1.51,2.37 -0.4,-0.76 -0.89,-0.46 -1.25,-0.59 -0.7,-0.24 -1.87,-0.63 -2.49,-0.94 -1.51,-0.74 -2.53,-3.37 -3.51,-4.73 l -0.4,-0.17 c -0.24,1.12 -4.44,6.8 -5.16,6.73 l -2.58,-0.63 v 1.32 c 0,0 18.46,0.26 18.46,0.26 0.52,-0.38 -0.24,-7.15 0,-8.26 l -0.84,-12.17 0.47,-0.11 c 0.06,-0.37 0.04,-0.76 0.44,-0.92 1.13,0.72 3.18,0.56 3.59,1.96 0.41,1.4 0.61,3.79 0.77,5.32 0.29,2.81 0.41,5.66 0.5,8.48 0.33,0.09 0.32,-0.14 0.46,-0.28 0.42,-0.41 3.15,-4.24 3.16,-4.6 0.03,-0.57 -2.38,-3.17 -2.87,-3.87 -0.4,-0.58 -1.59,-2.54 -1.41,-3.18 0.08,-0.28 0.53,-0.2 0.62,-0.3 0.11,-0.13 0.05,-1.23 0.77,-1.22 0.33,0 1.92,0.91 2.51,1.05 0.37,0.09 0.94,-0.05 1.16,0.07 0.2,0.11 1.62,2.39 2.04,2.82 0.11,0.11 0.14,0.33 0.37,0.27 1.29,-1.33 2.19,-2.97 3.39,-4.36 0.39,-0.45 1.47,-1.77 2.04,-1.74 l 1.25,0.33 -0.16,0.49 c 0.87,-0.41 1.37,0.38 2.3,0.17 -0.05,0.37 -0.16,0.74 -0.32,1.08 -0.92,1.93 -3.01,4.22 -4.19,6.18 -0.21,0.35 -1.1,1.78 -1.06,2 1.65,2.42 3.78,4.49 5.57,6.8 0.7,0.91 2.36,2.75 1.95,3.92 -0.17,0.48 -1.18,0.4 -0.96,1.1 0.81,-0.15 1.87,0.15 2.59,0.13 0.2,0 0.25,-0.06 0.37,-0.22 v -22.07 c 0,0 0.24,-0.2 0.28,-0.37 0.06,-0.27 0.3,-1.5 0.47,-1.52 0.43,0.06 0.84,0.3 1.22,0.41 0.51,0.15 0.35,0 1,0.31 0.79,0.38 0.89,0.23 1.23,1.24 1.45,4.42 1.61,12.76 1.73,17.54 0.04,1.67 -0.05,3.36 0,5.03 1.99,0.22 4.23,0.32 6.16,0.84 1.12,0.3 2.31,1.06 3.56,1.14 -0.05,0.88 -0.93,1.28 -1.42,1.94 -1.56,-0.26 -3.17,-0.08 -4.76,-0.13 -0.91,-0.03 -2.07,-0.27 -2.99,-0.32 -0.19,-0.01 -0.36,-0.03 -0.48,0.15 l 0.08,10.64 0.26,0.57 h 4.94 c 1.03,0 2.03,0.69 2.98,0.98 0.66,0.2 1.35,0.37 2.05,0.34 -0.04,0.41 0.2,0.95 -0.28,1.03 0.31,0.52 -0.44,0.26 -0.67,0.5 -0.17,0.17 -0.06,0.95 -0.62,0.95 l -8.48,-0.17 0.33,18.94 h 4.36 c 0.64,0 1.66,1.23 2.71,0.74 l 7.42,-6.25 c 0.49,-0.43 0.35,-1.35 0.32,-1.98 -0.18,-4.21 -1.03,-8.73 -1.31,-13.02 -1.14,-17.2 -1.38,-34.38 -1.99,-51.55 -0.06,-1.85 0.1,-3.69 -0.16,-5.52 l -3.51,2.5 c -5.04,2.88 -15.83,2.81 -21.77,3.1 -20.6,1.02 -41.17,0.3 -61.78,-0.16 -14.37,-0.32 -32.36,1.27 -45.48,-5.08 l -3.68,-2.17 c -0.07,10.33 -0.35,20.71 -0.17,31.05 0.04,2.55 0.26,5.18 0.34,7.73 0.06,1.73 -0.13,3.48 0.16,5.19 H 117 c 0,0 -0.49,-0.41 -0.49,-0.41 0.19,-0.16 0.37,-0.48 0.61,-0.55 0.66,-0.19 4.75,1.34 5.64,1.71 1.41,0.58 2.84,1.38 4.24,2.03 0.57,0.05 3.03,-3.38 3.8,-3.56 0.39,-0.09 0.73,0.04 1.1,0.15 0.7,0.19 1.31,0.78 2.17,0.96 0.51,0.1 0.86,0.15 1.38,0.02 0.03,0.57 0.06,0.98 -0.25,1.47 -0.48,0.77 -3.51,3.46 -3.54,3.72 -0.04,0.29 0.12,0.21 0.21,0.3 0.63,0.55 3.2,1.88 3.39,2.54 0.4,1.36 -0.98,1.18 -1.28,2.28 -1.78,-0.73 -3.72,-1.18 -5.27,-2.33 -0.12,-0.07 -0.24,-0.06 -0.37,-0.04 -0.5,0.1 -3.87,3.47 -4.66,4.08 -0.26,0.2 -1.26,1 -1.48,1 -0.09,0 -0.05,-0.26 -0.2,-0.33 -0.89,-0.35 -1.83,-0.27 -2.8,-0.8 -0.18,-0.1 -0.4,-0.16 -0.36,-0.42 1.39,-2.51 3.59,-4.43 5.58,-6.45 l -8.23,-4.86 1.01,15.95 c 0.78,0.42 0.38,-0.22 0.72,-0.45 2.75,-1.79 10.21,-1.03 13.5,-1.67 l 7.76,-0.31 -0.09,-15.66 c -3.11,-0.18 -6.21,-0.6 -9.31,-0.82 -3.28,-0.23 -6.4,0.12 -9.44,-0.94 -0.72,-0.25 -3.28,-0.94 -1.18,-1.2 -0.21,-0.31 -0.17,-0.87 0.16,-1.07 0.29,-0.17 5.08,-0.11 5.86,-0.09 l 13.91,1 c 0.03,-0.63 -0.04,-1.27 0,-1.89 0.38,-5.47 -0.18,-11.11 0.65,-16.48 0.13,-0.86 -0.2,-1.86 0.2,-2.69 0.54,-0.28 1.05,0.28 1.38,0.31 0.24,0.02 0.61,-0.22 0.71,-0.15 0.05,0.04 0.09,0.35 0.26,0.49 0.67,0.56 0.66,0 0.97,1.17 0.8,3.03 0.13,6.54 0.61,9.6 l 0.16,10.14 7.82,0.67 13.44,-0.08 c 0.17,-0.12 0.14,-0.32 0.16,-0.5 0.42,-3.47 -0.21,-7.92 -0.01,-11.54 0.04,-0.73 0.28,-1.57 0.34,-2.3 0.14,-1.73 0.12,-3.49 0.51,-5.18 0.09,-0.06 1.81,0.31 2,0.37 0.33,0.11 0.54,0.53 0.95,0.28 l 0.5,12.85 c 0.38,0.1 0.27,-0.07 0.38,-0.21 1.13,-1.45 2.18,-3.15 3.25,-4.66 l -3.76,-6.94 -0.03,-0.38 h 0.66 c 0,0 0.02,-0.97 0.02,-0.97 0.31,-0.5 2.4,0.6 2.9,0.76 0.31,0.1 0.68,-0.03 1.03,0.12 0.64,0.28 2.52,3.04 2.72,3.04 0.65,-0.56 2.13,-3.07 2.96,-2.97 0.1,0.01 0.05,0.26 0.17,0.3 0.77,0.26 1.3,0.52 2.15,0.69 0.29,0.06 0.61,0 0.9,0 0.53,0.53 -1.49,2.8 -1.85,3.34 -0.26,0.39 -1.55,2.26 -1.55,2.51 l 3.14,4.22 c 0.53,0.71 2.78,3.58 2.85,4.2 0.13,1.2 -0.44,0.98 -0.93,1.47 -0.26,0.27 -0.3,0.65 -0.59,0.89 h -0.24 c -0.11,-0.87 -0.63,-0.49 -1,-0.59 -1.11,-0.31 -2.7,-0.79 -3.44,-1.63 -0.62,-0.7 -2.46,-3.77 -3.05,-4.03 -1.25,1.77 -2.52,3.63 -4.28,4.94 -0.26,-0.6 -1.21,-0.64 -1.78,-0.72 -0.16,-0.02 -0.5,-0.47 -0.61,-0.02 z m 59.46,3.54 c -0.57,-0.19 -1.46,-0.35 -1.97,-0.58 -1.52,-0.69 -2.83,-3.4 -3.96,-4.77 -0.49,-0.59 -1.03,-1.18 -1.58,-1.72 -0.35,-0.06 -1.7,1.98 -2.04,2.37 -0.64,0.74 -3.12,3.39 -3.87,3.55 -0.05,0.01 -0.39,-0.66 -0.9,-0.49 l 0.02,1.13 c 3.39,0.4 6.86,0.38 10.28,0.5 1.16,0.04 2.22,0.22 3.45,0.17 0.2,0 0.61,0.12 0.57,-0.16 z m -63.58,16.14 -0.16,-13.44 c -4.99,-0.1 -9.95,-0.04 -14.91,-0.4 -1.87,-0.14 -3.94,-0.58 -5.77,-0.66 -0.22,0 -0.52,-0.04 -0.66,0.16 l 0.26,13.02 5.1,-4.69 c -0.73,-0.88 -4.93,-4.17 -4.6,-5.26 0.08,-0.27 0.54,-0.2 0.62,-0.29 0.12,-0.14 0,-0.67 0.24,-0.92 0.44,-0.48 2.33,0.49 2.92,0.71 0.33,0.12 0.72,0.05 1.11,0.2 0.78,0.3 2.89,2.45 3.26,2.45 1.18,-0.56 3.75,-3.41 4.94,-3.41 0.5,0 1.88,0.87 2.65,1 0.23,0.04 0.42,-0.1 0.55,-0.1 0.98,0 -0.67,2.02 -0.97,2.33 -0.51,0.53 -3.55,2.77 -3.62,3.14 -0.02,0.23 0.18,0.34 0.31,0.48 0.65,0.67 3.83,2.72 4.05,3.21 0.07,0.17 -0.06,1.19 -0.12,1.28 -0.07,0.11 -1.37,0.55 -1.12,1.35 l 5.93,-0.16 z m 20.59,-13.5 h -16.31 c 0.06,2.77 -0.08,5.56 0,8.32 0.01,0.39 0.16,0.75 0.18,1.14 0.04,1.06 -0.18,2.69 0,3.63 0.03,0.18 0.08,0.31 0.25,0.41 h 15.65 l 0.25,-0.25 v -13.26 z m 4.94,0 v 13.34 l 19.11,-0.33 c 0.04,-4.29 -0.12,-8.57 -0.33,-12.85 z m 42.99,1.31 -19.11,-0.82 0.4,12.36 18.85,-0.03 z m -76.15,11.6 c -0.86,-0.34 -1.91,-0.57 -2.73,-0.98 -0.51,-0.26 -1.88,-1.55 -2.24,-1.55 l -4.86,3.62 11.2,-0.33 c -0.22,-0.66 -0.78,-0.39 -1.2,-0.5 -0.12,-0.03 -0.13,-0.24 -0.17,-0.26 z m -10.65,1.09 c -0.04,-0.28 -0.32,-0.3 -0.53,-0.38 -0.42,-0.16 -1.8,-0.6 -2.19,-0.62 -0.47,-0.02 -0.2,0.58 -0.23,0.89 0.15,0.41 0.33,0.1 0.39,0.1 h 2.55 z m 86.97,2.47 h -18.37 c -0.06,0 -0.27,0.17 -0.39,0.19 l -0.04,0.21 0.34,18.87 c 2.39,-0.04 4.78,0.04 7.17,0 0.47,0 0.87,-0.17 1.3,-0.18 3.01,-0.04 7.06,0.36 9.9,0.01 0.18,-0.02 0.38,0 0.5,-0.16 l -0.42,-18.95 z m -24.05,0.16 -19.11,0.33 c 0.05,1.95 -0.06,3.91 0,5.86 0.1,3.51 0.29,7.18 0.5,10.7 0.02,0.32 0.21,2.08 0.32,2.15 l 18.62,0.07 z m -65.15,18.94 h 20.92 c 0.6,-0.81 0.1,-2.12 0.08,-3.04 -0.05,-1.81 -0.11,-3.64 -0.16,-5.44 -0.1,-3.38 -0.11,-6.76 -0.16,-10.14 l -21.25,0.16 0.58,18.45 z m 41.1,-18.61 h -15.98 l 0.57,18.46 c 0.12,0.17 0.32,0.14 0.5,0.16 3.58,0.43 8.74,-0.06 12.53,-0.01 0.94,0.01 2.12,0.43 3.05,-0.1 z m -61.28,19.27 14.75,-0.65 -0.26,-17.88 -0.15,-0.34 c -0.41,-0.28 -4.4,0.03 -5.23,0.03 -4.59,-0.02 -9.07,0.26 -13.64,0.4 -1.18,0.04 -1.93,-0.24 -3.03,-0.32 l 0.64,13.4 c 0.66,6.35 0.97,12.76 1.83,19.09 1.21,8.86 3.05,15.35 12.79,17.35 10.05,2.06 19.52,2.87 29.75,2.85 7.54,-0.02 14.74,0.39 22.24,0.67 6.41,0.24 11.5,-0.34 17.79,-0.66 0.96,-0.05 1.92,0.03 2.88,0 l -12.03,-15.48 -0.33,0.08 c -0.18,1.1 0.58,2.69 -0.16,3.63 -0.25,0.32 -0.87,0.41 -0.83,1.07 h -0.32 c -0.04,-0.51 -1.18,-0.55 -1.67,-0.72 -0.63,-0.21 -1.29,-0.42 -1.88,-0.76 l -1.07,-19.11 h -16.07 c 0,0 -0.08,7.66 -0.08,7.66 0.34,1.4 0.08,2.86 0.16,4.28 0.12,1.9 0.72,4.52 0.68,6.25 -0.03,1.09 -0.78,1.01 -1.25,1.89 -0.17,-0.57 -0.53,-0.33 -0.9,-0.45 -0.48,-0.16 -2.09,-0.63 -2.36,-0.86 -0.4,-0.33 -0.24,-2.92 -0.28,-3.55 -0.15,-2.3 -0.43,-4.62 -0.5,-6.91 -0.08,-2.46 0.3,-5.59 0.01,-7.92 -0.02,-0.18 0,-0.38 -0.16,-0.5 l -21.1,-0.16 c -0.17,0.12 -0.14,0.32 -0.16,0.5 -0.38,3.19 0.24,7.88 0.34,11.2 0.07,2.04 0.37,5.01 0.16,6.93 -0.11,1.05 -0.91,0.79 -1.16,1.73 -0.45,0.13 -0.23,-0.26 -0.53,-0.38 -0.35,-0.15 -1.28,-0.24 -1.73,-0.39 -0.53,-0.18 -1.54,-0.42 -1.64,-0.99 l -0.68,-18.6 c -0.34,-0.44 -3.59,-0.19 -4.39,-0.22 -0.35,-0.02 -0.67,-0.16 -0.98,-0.17 -3.45,-0.15 -6.96,0 -10.29,-0.99 -0.4,-0.38 1.15,-0.55 1.32,-0.49 l -0.49,-0.49 z m 150,-11.8 c -0.45,-0.49 -3.23,-2.89 -3.69,-3 -0.46,-0.11 -1.98,1.71 -2.43,2.13 -12.06,11.21 -24.71,21.83 -36.82,33.01 -1.68,1.55 -3.59,3.82 -5.39,5.2 -0.46,0.35 -0.85,0.23 -1.19,0.41 -0.23,0.12 -0.3,0.47 -0.51,0.65 -0.89,0.76 -2.01,0.35 -2.99,0.05 -6.77,-2.11 -9.16,-7.49 -13.24,-12.78 -1.21,-1.57 -2.54,-3.07 -3.75,-4.65 -0.64,-0.83 -2.6,-4.03 -3.35,-4.24 -0.58,-0.17 -1.93,1.41 -2.35,1.88 -0.99,1.1 -2.18,2.66 -3.04,3.88 -0.25,0.36 -1.12,1.52 -1.06,1.84 4.43,5.42 8.57,11.09 12.99,16.51 1.57,1.93 2.73,3.21 4.53,4.85 1.13,1.03 1.99,3.03 2.87,4.21 1.86,2.49 4.13,4.84 6.02,7.33 0.12,0.18 0.26,0.18 0.45,0.15 0.59,-0.09 2.81,-2.08 3.33,-2.61 4.92,-4.96 9.46,-11.18 14.16,-16.48 4.07,-4.58 8.39,-9.22 12.66,-13.61 7.61,-7.82 15.91,-14.29 23.06,-22.73 0.24,-0.28 0.76,-0.21 0.54,-0.89 -0.06,-0.18 -0.64,-0.9 -0.82,-1.09 z m -34.04,14.44 v 3.05 c 0,0.08 0.32,0.34 0.48,0.24 0.01,0 0,-0.2 0.13,-0.31 0.3,-0.25 3.3,-2.79 3.17,-2.97 -1.23,-0.4 -2.51,0.18 -3.79,0 z m -45.21,0 c -0.61,-0.16 -2.65,0 -3.46,0 -0.45,0 -0.08,1.11 -0.07,1.39 0.01,0.41 -0.16,2.73 0.24,2.72 0.99,-1.2 2.06,-2.34 3.07,-3.52 0.13,-0.15 0.25,-0.28 0.47,-0.27 0.04,-0.06 -0.19,-0.31 -0.25,-0.33 z m 39.28,0 -18.94,0.16 c 0.09,4.36 0.43,8.72 0.87,13.05 1.18,1.65 2.3,3.42 3.59,4.98 1.29,1.56 1.31,2.27 3.2,0.91 1.64,-1.18 3.78,-3.15 5.36,-4.52 2.16,-1.89 4.18,-3.97 6.34,-5.85 l -0.41,-8.73 z m -24.21,0.16 h -4.78 c 0.15,0.36 0.85,1.27 1.16,1.41 0.34,0.15 0.54,-0.05 0.74,-0.02 0.46,0.07 2.66,4.03 2.96,4.05 0.24,0.02 0.18,-0.35 0.17,-0.49 -0.07,-1.65 -0.27,-3.29 -0.25,-4.94 z m 41.84,18.62 c -0.31,-0.07 -0.39,0.18 -0.58,0.33 -1.54,1.27 -3.47,3.19 -4.95,4.61 -1.48,1.42 -2.95,2.85 -4.2,4.45 4.93,-1.03 8.66,-4.37 9.72,-9.39 z"
           id="path1" />
        <path
           class="cls-1"
           d="m 136.29,133.4 -0.17,0.49 c 0.88,-0.42 1.45,0.38 2.3,0 0.35,0.39 -0.95,1.82 -1.23,2.14 -0.87,1 -6.34,6.28 -6.35,7 l 5.02,5.69 c 0.57,1.59 -0.82,1.01 -1.06,2.3 -0.95,-0.69 -2.19,-0.77 -3.24,-1.29 -1.33,-0.66 -2.7,-2.13 -3.51,-3.33 l -0.33,0.08 -4.27,4.13 -3.56,-1.25 c -0.19,-0.3 0.99,-1.74 1.25,-2.06 1.18,-1.4 2.73,-2.64 3.79,-4.13 l -0.13,-0.53 c -1.28,-1.8 -2.59,-3.61 -3.73,-5.49 -0.51,-0.84 -1.91,-2.93 -1.75,-3.85 l 0.47,-0.1 0.27,-0.82 0.17,-0.12 c 0.78,0.52 2.23,0.68 2.98,1.11 0.38,0.22 1.35,1.48 1.72,1.91 1.19,1.4 2.19,2.97 3.4,4.35 l 6.32,-6.5 1.64,0.25 z"
           id="path2" />
        <path
           class="cls-1"
           d="m 156.51,134.27 c 0,0 0.03,0.23 0.16,0.28 0.75,0.26 1.85,0.71 2.62,0.78 0.19,0.02 0.36,-0.11 0.55,-0.11 0.1,0.71 -0.44,1.21 -0.83,1.72 -0.67,0.92 -4.12,4.29 -3.92,5.23 1.4,1.89 2.78,3.81 4.26,5.64 0.24,0.3 0.96,0.85 1.06,1.08 0.54,1.27 -0.54,1.6 -1.17,2.46 -1.19,-0.79 -3.02,-0.73 -4.11,-1.8 -0.5,-0.49 -2.52,-3.63 -2.96,-3.63 -1.28,1.87 -2.65,3.7 -4.29,5.27 l -0.22,-0.03 c -0.09,-0.5 -1.28,-0.44 -1.68,-0.57 -0.4,-0.13 -1.64,-0.57 -1.65,-0.96 -0.01,-0.55 3.87,-5.56 4.49,-6.56 0.16,-0.26 0.44,-0.56 0.46,-0.87 0.02,-0.46 -4.56,-6.65 -4.62,-7.97 h 0.82 c -0.64,-2.48 2.93,0.14 4.12,-0.08 l 2.89,4.03 c 0.77,-0.44 3.31,-4.24 4,-3.91 z"
           id="path3" />
      </g>
    </g>
  </g>
</svg>
